<mxfile host="app.diagrams.net" modified="2023-11-06T11:46:28.686Z" agent="Mozilla/5.0 (Windows NT 10.0; Win64; x64) AppleWebKit/537.36 (KHTML, like Gecko) Chrome/116.0.5845.931 YaBrowser/23.9.3.931 Yowser/2.5 Safari/537.36" etag="W_xGuiPk1Qt-SG7nmxxn" version="22.0.8" type="github">
  <diagram name="Страница — 1" id="KXNI1BQ9-ewvwUavfwsc">
    <mxGraphModel dx="2163" dy="748" grid="1" gridSize="10" guides="1" tooltips="1" connect="1" arrows="1" fold="1" page="1" pageScale="1" pageWidth="827" pageHeight="1169" math="0" shadow="0">
      <root>
        <mxCell id="0" />
        <mxCell id="1" parent="0" />
        <mxCell id="QkxlfHe-JaKUHBolWKXJ-21" style="edgeStyle=orthogonalEdgeStyle;rounded=0;orthogonalLoop=1;jettySize=auto;html=1;" edge="1" parent="1" source="gZI-Oxyiz87ntpGDQEb9-1" target="QkxlfHe-JaKUHBolWKXJ-20">
          <mxGeometry relative="1" as="geometry" />
        </mxCell>
        <mxCell id="QkxlfHe-JaKUHBolWKXJ-22" value="SOAP" style="edgeLabel;html=1;align=center;verticalAlign=middle;resizable=0;points=[];numbered=0;" vertex="1" connectable="0" parent="QkxlfHe-JaKUHBolWKXJ-21">
          <mxGeometry x="-0.3556" y="1" relative="1" as="geometry">
            <mxPoint x="11" y="1" as="offset" />
          </mxGeometry>
        </mxCell>
        <object placeholders="1" c4Name="CRM" c4Type="Software System" c4Description="Заказы и внутренние клиенты" label="&lt;font style=&quot;font-size: 16px&quot;&gt;&lt;b&gt;%c4Name%&lt;/b&gt;&lt;/font&gt;&lt;div&gt;[%c4Type%]&lt;/div&gt;&lt;br&gt;&lt;div&gt;&lt;font style=&quot;font-size: 11px&quot;&gt;&lt;font color=&quot;#cccccc&quot;&gt;%c4Description%&lt;/font&gt;&lt;/div&gt;" id="gZI-Oxyiz87ntpGDQEb9-1">
          <mxCell style="rounded=1;whiteSpace=wrap;html=1;labelBackgroundColor=none;fillColor=#1061B0;fontColor=#ffffff;align=center;arcSize=10;strokeColor=#0D5091;metaEdit=1;resizable=0;points=[[0.25,0,0],[0.5,0,0],[0.75,0,0],[1,0.25,0],[1,0.5,0],[1,0.75,0],[0.75,1,0],[0.5,1,0],[0.25,1,0],[0,0.75,0],[0,0.5,0],[0,0.25,0]];" parent="1" vertex="1">
            <mxGeometry x="40" y="310" width="240" height="120" as="geometry" />
          </mxCell>
        </object>
        <object placeholders="1" c4Name="Сайт" c4Type="Software System" c4Description="Сайт для пользователей" label="&lt;font style=&quot;font-size: 16px&quot;&gt;&lt;b&gt;%c4Name%&lt;/b&gt;&lt;/font&gt;&lt;div&gt;[%c4Type%]&lt;/div&gt;&lt;br&gt;&lt;div&gt;&lt;font style=&quot;font-size: 11px&quot;&gt;&lt;font color=&quot;#cccccc&quot;&gt;%c4Description%&lt;/font&gt;&lt;/div&gt;" id="gZI-Oxyiz87ntpGDQEb9-2">
          <mxCell style="rounded=1;whiteSpace=wrap;html=1;labelBackgroundColor=none;fillColor=#1061B0;fontColor=#ffffff;align=center;arcSize=10;strokeColor=#0D5091;metaEdit=1;resizable=0;points=[[0.25,0,0],[0.5,0,0],[0.75,0,0],[1,0.25,0],[1,0.5,0],[1,0.75,0],[0.75,1,0],[0.5,1,0],[0.25,1,0],[0,0.75,0],[0,0.5,0],[0,0.25,0]];" parent="1" vertex="1">
            <mxGeometry x="800" y="310" width="240" height="120" as="geometry" />
          </mxCell>
        </object>
        <mxCell id="QkxlfHe-JaKUHBolWKXJ-11" style="edgeStyle=orthogonalEdgeStyle;rounded=0;orthogonalLoop=1;jettySize=auto;html=1;" edge="1" parent="1" source="gZI-Oxyiz87ntpGDQEb9-3" target="gZI-Oxyiz87ntpGDQEb9-2">
          <mxGeometry relative="1" as="geometry" />
        </mxCell>
        <mxCell id="QkxlfHe-JaKUHBolWKXJ-34" value="REST" style="edgeLabel;html=1;align=center;verticalAlign=middle;resizable=0;points=[];numbered=0;" vertex="1" connectable="0" parent="QkxlfHe-JaKUHBolWKXJ-11">
          <mxGeometry x="-0.438" y="5" relative="1" as="geometry">
            <mxPoint as="offset" />
          </mxGeometry>
        </mxCell>
        <mxCell id="QkxlfHe-JaKUHBolWKXJ-17" style="edgeStyle=orthogonalEdgeStyle;rounded=0;orthogonalLoop=1;jettySize=auto;html=1;" edge="1" parent="1" source="gZI-Oxyiz87ntpGDQEb9-3" target="gZI-Oxyiz87ntpGDQEb9-4">
          <mxGeometry relative="1" as="geometry">
            <Array as="points">
              <mxPoint x="400" y="560" />
              <mxPoint x="400" y="560" />
            </Array>
          </mxGeometry>
        </mxCell>
        <mxCell id="QkxlfHe-JaKUHBolWKXJ-18" value="REST HTTP" style="edgeLabel;html=1;align=center;verticalAlign=middle;resizable=0;points=[];numbered=0;" vertex="1" connectable="0" parent="QkxlfHe-JaKUHBolWKXJ-17">
          <mxGeometry y="1" relative="1" as="geometry">
            <mxPoint as="offset" />
          </mxGeometry>
        </mxCell>
        <object placeholders="1" c4Name="НСИ-System" c4Type="Software System" c4Description="Система управления нормативно справочной информацией" label="&lt;font style=&quot;font-size: 16px&quot;&gt;&lt;b&gt;%c4Name%&lt;/b&gt;&lt;/font&gt;&lt;div&gt;[%c4Type%]&lt;/div&gt;&lt;br&gt;&lt;div&gt;&lt;font style=&quot;font-size: 11px&quot;&gt;&lt;font color=&quot;#cccccc&quot;&gt;%c4Description%&lt;/font&gt;&lt;/div&gt;" id="gZI-Oxyiz87ntpGDQEb9-3">
          <mxCell style="rounded=1;whiteSpace=wrap;html=1;labelBackgroundColor=none;fillColor=#1061B0;fontColor=#ffffff;align=center;arcSize=10;strokeColor=#0D5091;metaEdit=1;resizable=0;points=[[0.25,0,0],[0.5,0,0],[0.75,0,0],[1,0.25,0],[1,0.5,0],[1,0.75,0],[0.75,1,0],[0.5,1,0],[0.25,1,0],[0,0.75,0],[0,0.5,0],[0,0.25,0]];" parent="1" vertex="1">
            <mxGeometry x="520" y="520" width="240" height="120" as="geometry" />
          </mxCell>
        </object>
        <mxCell id="QkxlfHe-JaKUHBolWKXJ-16" style="edgeStyle=orthogonalEdgeStyle;rounded=0;orthogonalLoop=1;jettySize=auto;html=1;" edge="1" parent="1" source="gZI-Oxyiz87ntpGDQEb9-4" target="gZI-Oxyiz87ntpGDQEb9-3">
          <mxGeometry relative="1" as="geometry" />
        </mxCell>
        <mxCell id="QkxlfHe-JaKUHBolWKXJ-19" value="REST HTTP" style="edgeLabel;html=1;align=center;verticalAlign=middle;resizable=0;points=[];numbered=0;" vertex="1" connectable="0" parent="QkxlfHe-JaKUHBolWKXJ-16">
          <mxGeometry x="0.1556" y="-2" relative="1" as="geometry">
            <mxPoint as="offset" />
          </mxGeometry>
        </mxCell>
        <object placeholders="1" c4Name="ERP" c4Type="Software System" c4Description="Внешние клиенты" label="&lt;font style=&quot;font-size: 16px&quot;&gt;&lt;b&gt;%c4Name%&lt;/b&gt;&lt;/font&gt;&lt;div&gt;[%c4Type%]&lt;/div&gt;&lt;br&gt;&lt;div&gt;&lt;font style=&quot;font-size: 11px&quot;&gt;&lt;font color=&quot;#cccccc&quot;&gt;%c4Description%&lt;/font&gt;&lt;/div&gt;" id="gZI-Oxyiz87ntpGDQEb9-4">
          <mxCell style="rounded=1;whiteSpace=wrap;html=1;labelBackgroundColor=none;fillColor=#1061B0;fontColor=#ffffff;align=center;arcSize=10;strokeColor=#0D5091;metaEdit=1;resizable=0;points=[[0.25,0,0],[0.5,0,0],[0.75,0,0],[1,0.25,0],[1,0.5,0],[1,0.75,0],[0.75,1,0],[0.5,1,0],[0.25,1,0],[0,0.75,0],[0,0.5,0],[0,0.25,0]];" parent="1" vertex="1">
            <mxGeometry x="40" y="520" width="240" height="120" as="geometry" />
          </mxCell>
        </object>
        <object placeholders="1" c4Name="SMTP" c4Type="Software System" c4Description="Сервис отправки e-mail" label="&lt;font style=&quot;font-size: 16px&quot;&gt;&lt;b&gt;%c4Name%&lt;/b&gt;&lt;/font&gt;&lt;div&gt;[%c4Type%]&lt;/div&gt;&lt;br&gt;&lt;div&gt;&lt;font style=&quot;font-size: 11px&quot;&gt;&lt;font color=&quot;#cccccc&quot;&gt;%c4Description%&lt;/font&gt;&lt;/div&gt;" id="QkxlfHe-JaKUHBolWKXJ-1">
          <mxCell style="rounded=1;whiteSpace=wrap;html=1;labelBackgroundColor=none;fillColor=#1061B0;fontColor=#ffffff;align=center;arcSize=10;strokeColor=#0D5091;metaEdit=1;resizable=0;points=[[0.25,0,0],[0.5,0,0],[0.75,0,0],[1,0.25,0],[1,0.5,0],[1,0.75,0],[0.75,1,0],[0.5,1,0],[0.25,1,0],[0,0.75,0],[0,0.5,0],[0,0.25,0]];" vertex="1" parent="1">
            <mxGeometry x="220" y="70" width="240" height="120" as="geometry" />
          </mxCell>
        </object>
        <mxCell id="QkxlfHe-JaKUHBolWKXJ-14" style="edgeStyle=orthogonalEdgeStyle;rounded=0;orthogonalLoop=1;jettySize=auto;html=1;dashed=1;" edge="1" parent="1" source="QkxlfHe-JaKUHBolWKXJ-2" target="gZI-Oxyiz87ntpGDQEb9-2">
          <mxGeometry relative="1" as="geometry" />
        </mxCell>
        <mxCell id="QkxlfHe-JaKUHBolWKXJ-15" value="browser" style="edgeLabel;html=1;align=center;verticalAlign=middle;resizable=0;points=[];numbered=0;" vertex="1" connectable="0" parent="QkxlfHe-JaKUHBolWKXJ-14">
          <mxGeometry x="-0.0788" y="-1" relative="1" as="geometry">
            <mxPoint as="offset" />
          </mxGeometry>
        </mxCell>
        <object placeholders="1" c4Name="Сотрудники заказчики" c4Type="Person" c4Description="Сотрудники компании, потребители сервиса" label="&lt;font style=&quot;font-size: 16px&quot;&gt;&lt;b&gt;%c4Name%&lt;/b&gt;&lt;/font&gt;&lt;div&gt;[%c4Type%]&lt;/div&gt;&lt;br&gt;&lt;div&gt;&lt;font style=&quot;font-size: 11px&quot;&gt;&lt;font color=&quot;#cccccc&quot;&gt;%c4Description%&lt;/font&gt;&lt;/div&gt;" id="QkxlfHe-JaKUHBolWKXJ-2">
          <mxCell style="html=1;fontSize=11;dashed=0;whiteSpace=wrap;fillColor=#083F75;strokeColor=#06315C;fontColor=#ffffff;shape=mxgraph.c4.person2;align=center;metaEdit=1;points=[[0.5,0,0],[1,0.5,0],[1,0.75,0],[0.75,1,0],[0.5,1,0],[0.25,1,0],[0,0.75,0],[0,0.5,0]];resizable=0;" vertex="1" parent="1">
            <mxGeometry x="820" y="20" width="200" height="180" as="geometry" />
          </mxCell>
        </object>
        <object placeholders="1" c4Name="Клиенты" c4Type="Person" c4Description="Физические и юридические лица" label="&lt;font style=&quot;font-size: 16px&quot;&gt;&lt;b&gt;%c4Name%&lt;/b&gt;&lt;/font&gt;&lt;div&gt;[%c4Type%]&lt;/div&gt;&lt;br&gt;&lt;div&gt;&lt;font style=&quot;font-size: 11px&quot;&gt;&lt;font color=&quot;#cccccc&quot;&gt;%c4Description%&lt;/font&gt;&lt;/div&gt;" id="QkxlfHe-JaKUHBolWKXJ-3">
          <mxCell style="html=1;fontSize=11;dashed=0;whiteSpace=wrap;fillColor=#6C6477;strokeColor=#4D4D4D;fontColor=#ffffff;shape=mxgraph.c4.person2;align=center;metaEdit=1;points=[[0.5,0,0],[1,0.5,0],[1,0.75,0],[0.75,1,0],[0.5,1,0],[0.25,1,0],[0,0.75,0],[0,0.5,0]];resizable=0;" vertex="1" parent="1">
            <mxGeometry x="1100" y="20" width="200" height="180" as="geometry" />
          </mxCell>
        </object>
        <object placeholders="1" c4Name="Mobile App" c4Type="Software System" c4Description="Приложение для ios\android" label="&lt;font style=&quot;font-size: 16px&quot;&gt;&lt;b&gt;%c4Name%&lt;/b&gt;&lt;/font&gt;&lt;div&gt;[%c4Type%]&lt;/div&gt;&lt;br&gt;&lt;div&gt;&lt;font style=&quot;font-size: 11px&quot;&gt;&lt;font color=&quot;#cccccc&quot;&gt;%c4Description%&lt;/font&gt;&lt;/div&gt;" id="QkxlfHe-JaKUHBolWKXJ-4">
          <mxCell style="rounded=1;whiteSpace=wrap;html=1;labelBackgroundColor=none;fillColor=#1061B0;fontColor=#ffffff;align=center;arcSize=10;strokeColor=#0D5091;metaEdit=1;resizable=0;points=[[0.25,0,0],[0.5,0,0],[0.75,0,0],[1,0.25,0],[1,0.5,0],[1,0.75,0],[0.75,1,0],[0.5,1,0],[0.25,1,0],[0,0.75,0],[0,0.5,0],[0,0.25,0]];" vertex="1" parent="1">
            <mxGeometry x="1080" y="520" width="240" height="120" as="geometry" />
          </mxCell>
        </object>
        <mxCell id="QkxlfHe-JaKUHBolWKXJ-5" value="" style="endArrow=classic;html=1;rounded=0;dashed=1;" edge="1" parent="1" source="QkxlfHe-JaKUHBolWKXJ-3" target="QkxlfHe-JaKUHBolWKXJ-4">
          <mxGeometry width="50" height="50" relative="1" as="geometry">
            <mxPoint x="890" y="270" as="sourcePoint" />
            <mxPoint x="940" y="220" as="targetPoint" />
          </mxGeometry>
        </mxCell>
        <mxCell id="QkxlfHe-JaKUHBolWKXJ-10" value="mobile app" style="edgeLabel;html=1;align=center;verticalAlign=middle;resizable=0;points=[];numbered=0;" vertex="1" connectable="0" parent="QkxlfHe-JaKUHBolWKXJ-5">
          <mxGeometry x="0.0375" relative="1" as="geometry">
            <mxPoint as="offset" />
          </mxGeometry>
        </mxCell>
        <mxCell id="QkxlfHe-JaKUHBolWKXJ-7" value="" style="endArrow=classic;html=1;rounded=0;dashed=1;edgeStyle=orthogonalEdgeStyle;" edge="1" parent="1" source="QkxlfHe-JaKUHBolWKXJ-3" target="gZI-Oxyiz87ntpGDQEb9-2">
          <mxGeometry width="50" height="50" relative="1" as="geometry">
            <mxPoint x="1300" y="350" as="sourcePoint" />
            <mxPoint x="1350" y="300" as="targetPoint" />
            <Array as="points">
              <mxPoint x="1150" y="260" />
              <mxPoint x="1000" y="260" />
            </Array>
          </mxGeometry>
        </mxCell>
        <mxCell id="QkxlfHe-JaKUHBolWKXJ-9" value="browser" style="edgeLabel;html=1;align=center;verticalAlign=middle;resizable=0;points=[];allowArrows=1;numbered=0;" vertex="1" connectable="0" parent="QkxlfHe-JaKUHBolWKXJ-7">
          <mxGeometry x="0.0828" relative="1" as="geometry">
            <mxPoint x="11" as="offset" />
          </mxGeometry>
        </mxCell>
        <mxCell id="QkxlfHe-JaKUHBolWKXJ-12" style="edgeStyle=orthogonalEdgeStyle;rounded=0;orthogonalLoop=1;jettySize=auto;html=1;entryX=0;entryY=0.5;entryDx=0;entryDy=0;entryPerimeter=0;" edge="1" parent="1">
          <mxGeometry relative="1" as="geometry">
            <mxPoint x="760" y="600" as="sourcePoint" />
            <mxPoint x="1080" y="600" as="targetPoint" />
          </mxGeometry>
        </mxCell>
        <mxCell id="QkxlfHe-JaKUHBolWKXJ-13" value="REST HTTP" style="edgeLabel;html=1;align=center;verticalAlign=middle;resizable=0;points=[];numbered=0;" vertex="1" connectable="0" parent="QkxlfHe-JaKUHBolWKXJ-12">
          <mxGeometry x="-0.6351" y="1" relative="1" as="geometry">
            <mxPoint x="22" y="1" as="offset" />
          </mxGeometry>
        </mxCell>
        <mxCell id="QkxlfHe-JaKUHBolWKXJ-29" style="edgeStyle=orthogonalEdgeStyle;rounded=0;orthogonalLoop=1;jettySize=auto;html=1;strokeWidth=1;endArrow=classicThin;endFill=1;" edge="1" parent="1" source="QkxlfHe-JaKUHBolWKXJ-20" target="QkxlfHe-JaKUHBolWKXJ-1">
          <mxGeometry relative="1" as="geometry" />
        </mxCell>
        <mxCell id="QkxlfHe-JaKUHBolWKXJ-30" value="kafka" style="edgeLabel;html=1;align=center;verticalAlign=middle;resizable=0;points=[];numbered=0;" vertex="1" connectable="0" parent="QkxlfHe-JaKUHBolWKXJ-29">
          <mxGeometry x="-0.2196" y="5" relative="1" as="geometry">
            <mxPoint x="5" y="-11" as="offset" />
          </mxGeometry>
        </mxCell>
        <object placeholders="1" c4Name="УПО" c4Type="Software System" c4Description="Управление порядком отображения и разрешениями на просмотр" label="&lt;font style=&quot;font-size: 16px&quot;&gt;&lt;b&gt;%c4Name%&lt;/b&gt;&lt;/font&gt;&lt;div&gt;[%c4Type%]&lt;/div&gt;&lt;br&gt;&lt;div&gt;&lt;font style=&quot;font-size: 11px&quot;&gt;&lt;font color=&quot;#cccccc&quot;&gt;%c4Description%&lt;/font&gt;&lt;/div&gt;" id="QkxlfHe-JaKUHBolWKXJ-20">
          <mxCell style="rounded=1;whiteSpace=wrap;html=1;labelBackgroundColor=none;fillColor=#1061B0;fontColor=#ffffff;align=center;arcSize=10;strokeColor=#0D5091;metaEdit=1;resizable=0;points=[[0.25,0,0],[0.5,0,0],[0.75,0,0],[1,0.25,0],[1,0.5,0],[1,0.75,0],[0.75,1,0],[0.5,1,0],[0.25,1,0],[0,0.75,0],[0,0.5,0],[0,0.25,0]];" vertex="1" parent="1">
            <mxGeometry x="400" y="310" width="240" height="120" as="geometry" />
          </mxCell>
        </object>
        <mxCell id="QkxlfHe-JaKUHBolWKXJ-23" style="edgeStyle=orthogonalEdgeStyle;rounded=0;orthogonalLoop=1;jettySize=auto;html=1;entryX=0;entryY=0.75;entryDx=0;entryDy=0;entryPerimeter=0;" edge="1" parent="1" source="gZI-Oxyiz87ntpGDQEb9-3" target="gZI-Oxyiz87ntpGDQEb9-1">
          <mxGeometry relative="1" as="geometry">
            <Array as="points">
              <mxPoint x="640" y="680" />
              <mxPoint x="20" y="680" />
              <mxPoint x="20" y="400" />
            </Array>
          </mxGeometry>
        </mxCell>
        <mxCell id="QkxlfHe-JaKUHBolWKXJ-24" value="REST" style="edgeLabel;html=1;align=center;verticalAlign=middle;resizable=0;points=[];numbered=0;" vertex="1" connectable="0" parent="QkxlfHe-JaKUHBolWKXJ-23">
          <mxGeometry x="-0.1" y="-1" relative="1" as="geometry">
            <mxPoint as="offset" />
          </mxGeometry>
        </mxCell>
        <mxCell id="QkxlfHe-JaKUHBolWKXJ-25" style="edgeStyle=orthogonalEdgeStyle;rounded=0;orthogonalLoop=1;jettySize=auto;html=1;entryX=0.75;entryY=1;entryDx=0;entryDy=0;entryPerimeter=0;" edge="1" parent="1" source="gZI-Oxyiz87ntpGDQEb9-1" target="gZI-Oxyiz87ntpGDQEb9-3">
          <mxGeometry relative="1" as="geometry">
            <Array as="points">
              <mxPoint y="370" />
              <mxPoint y="710" />
              <mxPoint x="700" y="710" />
            </Array>
          </mxGeometry>
        </mxCell>
        <mxCell id="QkxlfHe-JaKUHBolWKXJ-26" value="REST" style="edgeLabel;html=1;align=center;verticalAlign=middle;resizable=0;points=[];numbered=0;" vertex="1" connectable="0" parent="QkxlfHe-JaKUHBolWKXJ-25">
          <mxGeometry x="0.1619" y="-4" relative="1" as="geometry">
            <mxPoint as="offset" />
          </mxGeometry>
        </mxCell>
        <mxCell id="QkxlfHe-JaKUHBolWKXJ-27" style="edgeStyle=orthogonalEdgeStyle;rounded=0;orthogonalLoop=1;jettySize=auto;html=1;" edge="1" parent="1" source="gZI-Oxyiz87ntpGDQEb9-4" target="QkxlfHe-JaKUHBolWKXJ-20">
          <mxGeometry relative="1" as="geometry">
            <Array as="points">
              <mxPoint x="160" y="480" />
              <mxPoint x="450" y="480" />
            </Array>
          </mxGeometry>
        </mxCell>
        <mxCell id="QkxlfHe-JaKUHBolWKXJ-28" value="SOAP" style="edgeLabel;html=1;align=center;verticalAlign=middle;resizable=0;points=[];numbered=0;" vertex="1" connectable="0" parent="QkxlfHe-JaKUHBolWKXJ-27">
          <mxGeometry x="-0.3295" y="2" relative="1" as="geometry">
            <mxPoint as="offset" />
          </mxGeometry>
        </mxCell>
        <object placeholders="1" c4Name="Admin" c4Type="Person" c4Description="Администратор" label="&lt;font style=&quot;font-size: 16px&quot;&gt;&lt;b&gt;%c4Name%&lt;/b&gt;&lt;/font&gt;&lt;div&gt;[%c4Type%]&lt;/div&gt;&lt;br&gt;&lt;div&gt;&lt;font style=&quot;font-size: 11px&quot;&gt;&lt;font color=&quot;#cccccc&quot;&gt;%c4Description%&lt;/font&gt;&lt;/div&gt;" id="QkxlfHe-JaKUHBolWKXJ-31">
          <mxCell style="html=1;fontSize=11;dashed=0;whiteSpace=wrap;fillColor=#083F75;strokeColor=#06315C;fontColor=#ffffff;shape=mxgraph.c4.person2;align=center;metaEdit=1;points=[[0.5,0,0],[1,0.5,0],[1,0.75,0],[0.75,1,0],[0.5,1,0],[0.25,1,0],[0,0.75,0],[0,0.5,0]];resizable=0;" vertex="1" parent="1">
            <mxGeometry x="540" y="10" width="200" height="180" as="geometry" />
          </mxCell>
        </object>
        <mxCell id="QkxlfHe-JaKUHBolWKXJ-32" style="edgeStyle=orthogonalEdgeStyle;rounded=0;orthogonalLoop=1;jettySize=auto;html=1;entryX=0.75;entryY=0;entryDx=0;entryDy=0;entryPerimeter=0;dashed=1;" edge="1" parent="1" source="QkxlfHe-JaKUHBolWKXJ-31" target="QkxlfHe-JaKUHBolWKXJ-20">
          <mxGeometry relative="1" as="geometry" />
        </mxCell>
        <mxCell id="QkxlfHe-JaKUHBolWKXJ-33" value="browser\desktop" style="edgeLabel;html=1;align=center;verticalAlign=middle;resizable=0;points=[];numbered=0;" vertex="1" connectable="0" parent="QkxlfHe-JaKUHBolWKXJ-32">
          <mxGeometry x="0.0948" y="-1" relative="1" as="geometry">
            <mxPoint as="offset" />
          </mxGeometry>
        </mxCell>
        <mxCell id="QkxlfHe-JaKUHBolWKXJ-35" style="edgeStyle=orthogonalEdgeStyle;rounded=0;orthogonalLoop=1;jettySize=auto;html=1;exitX=0.75;exitY=1;exitDx=0;exitDy=0;exitPerimeter=0;entryX=0.25;entryY=0;entryDx=0;entryDy=0;entryPerimeter=0;" edge="1" parent="1" source="QkxlfHe-JaKUHBolWKXJ-20" target="gZI-Oxyiz87ntpGDQEb9-3">
          <mxGeometry relative="1" as="geometry" />
        </mxCell>
        <mxCell id="QkxlfHe-JaKUHBolWKXJ-36" value="REST" style="edgeLabel;html=1;align=center;verticalAlign=middle;resizable=0;points=[];numbered=0;" vertex="1" connectable="0" parent="QkxlfHe-JaKUHBolWKXJ-35">
          <mxGeometry x="-0.1259" y="2" relative="1" as="geometry">
            <mxPoint y="-1" as="offset" />
          </mxGeometry>
        </mxCell>
        <mxCell id="QkxlfHe-JaKUHBolWKXJ-37" style="edgeStyle=orthogonalEdgeStyle;rounded=0;orthogonalLoop=1;jettySize=auto;html=1;entryX=0.75;entryY=1;entryDx=0;entryDy=0;entryPerimeter=0;" edge="1" parent="1" source="QkxlfHe-JaKUHBolWKXJ-4" target="gZI-Oxyiz87ntpGDQEb9-2">
          <mxGeometry relative="1" as="geometry" />
        </mxCell>
        <mxCell id="QkxlfHe-JaKUHBolWKXJ-38" value="REST" style="edgeLabel;html=1;align=center;verticalAlign=middle;resizable=0;points=[];numbered=0;" vertex="1" connectable="0" parent="QkxlfHe-JaKUHBolWKXJ-37">
          <mxGeometry x="0.2627" y="3" relative="1" as="geometry">
            <mxPoint as="offset" />
          </mxGeometry>
        </mxCell>
      </root>
    </mxGraphModel>
  </diagram>
</mxfile>
